<svg xmlns="http://www.w3.org/2000/svg" version="1.1" xmlns:xlink="http://www.w3.org/1999/xlink" xmlns:svgjs="http://svgjs.com/svgjs" width="1990" height="2000" preserveAspectRatio="none" viewBox="0 0 1990 2000"><g mask="url(&quot;#SvgjsMask2252&quot;)" fill="none"><rect width="1990" height="2000" x="0" y="0" fill="url(#SvgjsLinearGradient2253)"></rect><path d="M2002.1525564527096 726.0286296696848L1742.882583257224 943.5819685533602 1960.4359221408993 1202.8519417488458 2219.705895336385 985.2986028651704z" fill="rgba(127, 153, 148, 0.16)" class="triangle-float3"></path><path d="M621.4828967582953 101.9320382200786L130.61959438544466 76.20698261117764 104.89453877654364 567.0702849840283 595.7578411493943 592.7953405929293z" fill="rgba(127, 153, 148, 0.16)" class="triangle-float1"></path><path d="M306.26394166230415 667.3005673975435L802.5296981894169 942.3851681665778 1077.6142989584512 446.11941163946506 581.3485424313385 171.03481087043076z" fill="rgba(127, 153, 148, 0.16)" class="triangle-float2"></path><path d="M1060.5115330540002 562.2467681833048L1158.0333522892565 953.3854213757994 1549.172005481751 855.8636021405432 1451.6501862464947 464.72494894804856z" fill="rgba(127, 153, 148, 0.16)" class="triangle-float1"></path><path d="M388.55859434438867 942.8448823952713L306.00892438339343 554.4792195692639-82.35673844261396 637.0288895302591 0.19293151838127187 1025.3945523562666z" fill="rgba(127, 153, 148, 0.16)" class="triangle-float1"></path><path d="M1531.2808855951466 230.57696229798114L1870.722042417299 495.7774591679416 2135.9225392872595 156.33630234578914 1796.4813824651071-108.8641945241713z" fill="rgba(127, 153, 148, 0.16)" class="triangle-float1"></path><path d="M1484.2567930001667 503.4149512282597L1636.9148384098178 790.5229773782326 1924.0228645597906 637.8649319685816 1771.3648191501395 350.7569058186087z" fill="rgba(127, 153, 148, 0.16)" class="triangle-float2"></path><path d="M1018.5282345353821 158.7921125536178L1271.8293958658246 356.69266907855183 1469.7299523907586 103.39150774810926 1216.4287910603161-94.50904877682476z" fill="rgba(127, 153, 148, 0.16)" class="triangle-float2"></path><path d="M597.6831254942294 1108.9678445338998L696.774399661645 1454.5401853239437 1042.346740451689 1355.448911156528 943.2554662842733 1009.8765703664842z" fill="rgba(127, 153, 148, 0.16)" class="triangle-float3"></path><path d="M1592.774542212151 1874.2711802035692L1961.4918038103347 2113.718969628422 2200.939593235188 1745.0017080302387 1832.2223316370041 1505.5539186053854z" fill="rgba(127, 153, 148, 0.16)" class="triangle-float2"></path><path d="M1512.8185970226837 1009.4049711494208L1903.253942259569 1458.5494573723613 2352.3984284825096 1068.114112135476 1961.9630832456241 618.9696259125355z" fill="rgba(127, 153, 148, 0.16)" class="triangle-float2"></path><path d="M-239.69515500203994 729.6107892294956L-70.16850788151112 1171.2428038173894 371.4635067063827 1001.7161566968605 201.93685958585382 560.0841421089667z" fill="rgba(127, 153, 148, 0.16)" class="triangle-float3"></path><path d="M603.7537909442412 1532.8498271276208L502.0947206336767 1125.1175662050287 94.36245971108445 1226.776636515593 196.02153002164903 1634.5088974381854z" fill="rgba(127, 153, 148, 0.16)" class="triangle-float3"></path><path d="M585.9392545535916 1243.943809822088L554.0679374221904 788.1627403640962 98.28686796419862 820.0340574954973 130.15818509559978 1275.8151269534892z" fill="rgba(127, 153, 148, 0.16)" class="triangle-float1"></path><path d="M1503.884078894378 854.0372818472642L1469.1669597037985 457.21879369774183 1072.3484715542759 491.93591288832147 1107.0655907448556 888.7544010378439z" fill="rgba(127, 153, 148, 0.16)" class="triangle-float2"></path><path d="M1882.723367696767-112.26154065411524L1585.9685621689657 327.69555123999135 2025.9256540630722 624.4503567677925 2322.6804595908734 184.49326487368594z" fill="rgba(127, 153, 148, 0.16)" class="triangle-float2"></path><path d="M1853.2611218891252 1234.8667717742505L1459.1275553911732 1214.211106813188 1438.4718904301108 1608.3446733111402 1832.6054569280627 1629.0003382722025z" fill="rgba(127, 153, 148, 0.16)" class="triangle-float3"></path><path d="M-121.80024205258371 1053.761013709136L20.038167168441532 1404.8233956815761 371.1005491408815 1262.9849864605508 229.26213991985628 911.9226044881108z" fill="rgba(127, 153, 148, 0.16)" class="triangle-float1"></path></g><defs><mask id="SvgjsMask2252"><rect width="1990" height="2000" fill="#ffffff"></rect></mask><linearGradient x1="-0.13%" y1="0.13%" x2="100.13%" y2="99.88%" gradientUnits="userSpaceOnUse" id="SvgjsLinearGradient2253"><stop stop-color="rgba(14, 42, 71, 1)" offset="0"></stop><stop stop-color="rgba(10, 10, 10, 1)" offset="0.2"></stop><stop stop-color="rgba(14, 42, 71, 1)" offset="0.36"></stop><stop stop-color="rgba(14, 42, 71, 1)" offset="0.69"></stop><stop stop-color="rgba(127, 153, 148, 1)" offset="1"></stop></linearGradient><style>
            @keyframes float1 {
                0%{transform: translate(0, 0)}
                50%{transform: translate(-10px, 0)}
                100%{transform: translate(0, 0)}
            }

            .triangle-float1 {
                animation: float1 5s infinite;
            }

            @keyframes float2 {
                0%{transform: translate(0, 0)}
                50%{transform: translate(-5px, -5px)}
                100%{transform: translate(0, 0)}
            }

            .triangle-float2 {
                animation: float2 4s infinite;
            }

            @keyframes float3 {
                0%{transform: translate(0, 0)}
                50%{transform: translate(0, -10px)}
                100%{transform: translate(0, 0)}
            }

            .triangle-float3 {
                animation: float3 6s infinite;
            }
        </style></defs></svg>